<svg width="361" height="361" viewBox="0 0 361 361" fill="none" xmlns="http://www.w3.org/2000/svg">
<path d="M180.5 0C141.298 -4.67474e-07 103.162 12.7624 71.8572 36.3578C40.5519 59.9532 17.7792 93.0988 6.98177 130.784L57.0225 145.122C64.7061 118.304 80.9114 94.7176 103.189 77.9268C125.466 61.1361 152.604 52.0542 180.5 52.0542V0Z" fill="#F06500"/>
<path d="M6.82076 131.35C-1.68232 161.396 -2.24495 193.135 5.18786 223.464C12.6207 253.793 27.7946 281.675 49.2269 304.386L87.0847 268.658C71.8332 252.497 61.0352 232.656 55.746 211.074C50.4567 189.491 50.8571 166.906 56.908 145.524L6.82076 131.35Z" fill="#8B35E2"/>
<path d="M48.3089 303.405C76.9311 334.19 115.4 354.02 157.08 359.474L163.834 307.86C134.174 303.979 106.799 289.868 86.4314 267.961L48.3089 303.405Z" fill="#00B2FF"/>
<path d="M180.5 0C217.867 4.45597e-07 254.313 11.5971 284.809 33.1911C315.305 54.7851 338.347 85.3114 350.756 120.558L301.656 137.844C292.826 112.763 276.428 91.0399 254.727 75.6734C233.026 60.3069 207.091 52.0542 180.5 52.0542V0Z" fill="#00E396"/>
<path d="M350.031 118.536C358.168 140.799 361.841 164.447 360.839 188.13C359.837 211.812 354.18 235.065 344.191 256.562C334.203 278.058 320.078 297.376 302.624 313.414C285.169 329.451 264.727 341.894 242.464 350.031L224.594 301.14C240.437 295.35 254.984 286.495 267.405 275.083C279.825 263.67 289.877 249.923 296.985 234.626C304.093 219.329 308.118 202.782 308.831 185.929C309.544 169.077 306.931 152.249 301.14 136.406L350.031 118.536Z" fill="#FF4560"/>
<path d="M242.338 350.077C215.063 360.023 185.792 363.243 157.007 359.465L163.782 307.853C184.266 310.542 205.095 308.25 224.505 301.173L242.338 350.077Z" fill="#FFA800"/>
<g filter="url(#filter0_d_5436_5794)">
<path d="M256.708 51.2588C256.768 50.0588 257.188 49.1348 257.968 48.4868C258.76 47.8268 259.798 47.4968 261.082 47.4968C261.958 47.4968 262.708 47.6528 263.332 47.9648C263.956 48.2648 264.424 48.6788 264.736 49.2068C265.06 49.7228 265.222 50.3108 265.222 50.9708C265.222 51.7268 265.024 52.3688 264.628 52.8968C264.244 53.4128 263.782 53.7608 263.242 53.9408V54.0128C263.938 54.2288 264.478 54.6128 264.862 55.1648C265.258 55.7168 265.456 56.4248 265.456 57.2888C265.456 58.0088 265.288 58.6508 264.952 59.2148C264.628 59.7788 264.142 60.2228 263.494 60.5468C262.858 60.8588 262.09 61.0148 261.19 61.0148C259.834 61.0148 258.73 60.6728 257.878 59.9888C257.026 59.3048 256.576 58.2968 256.528 56.9648H258.976C259 57.5528 259.198 58.0268 259.57 58.3868C259.954 58.7348 260.476 58.9088 261.136 58.9088C261.748 58.9088 262.216 58.7408 262.54 58.4048C262.876 58.0568 263.044 57.6128 263.044 57.0728C263.044 56.3528 262.816 55.8368 262.36 55.5248C261.904 55.2128 261.196 55.0568 260.236 55.0568H259.714V52.9868H260.236C261.94 52.9868 262.792 52.4168 262.792 51.2768C262.792 50.7608 262.636 50.3588 262.324 50.0708C262.024 49.7828 261.586 49.6388 261.01 49.6388C260.446 49.6388 260.008 49.7948 259.696 50.1068C259.396 50.4068 259.222 50.7908 259.174 51.2588H256.708ZM276.268 49.9808H270.436V53.0588C270.688 52.7468 271.048 52.4948 271.516 52.3028C271.984 52.0988 272.482 51.9968 273.01 51.9968C273.97 51.9968 274.756 52.2068 275.368 52.6268C275.98 53.0468 276.424 53.5868 276.7 54.2468C276.976 54.8948 277.114 55.5908 277.114 56.3348C277.114 57.7148 276.718 58.8248 275.926 59.6648C275.146 60.5048 274.03 60.9248 272.578 60.9248C271.21 60.9248 270.118 60.5828 269.302 59.8988C268.486 59.2148 268.024 58.3208 267.916 57.2168H270.364C270.472 57.6968 270.712 58.0808 271.084 58.3688C271.468 58.6568 271.954 58.8008 272.542 58.8008C273.25 58.8008 273.784 58.5788 274.144 58.1348C274.504 57.6908 274.684 57.1028 274.684 56.3708C274.684 55.6268 274.498 55.0628 274.126 54.6788C273.766 54.2828 273.232 54.0848 272.524 54.0848C272.02 54.0848 271.6 54.2108 271.264 54.4628C270.928 54.7148 270.688 55.0508 270.544 55.4708H268.132V47.7668H276.268V49.9808ZM278.744 51.0248C278.744 50.1128 279.008 49.3988 279.536 48.8828C280.076 48.3668 280.766 48.1088 281.606 48.1088C282.446 48.1088 283.13 48.3668 283.658 48.8828C284.198 49.3988 284.468 50.1128 284.468 51.0248C284.468 51.9488 284.198 52.6688 283.658 53.1848C283.13 53.7008 282.446 53.9588 281.606 53.9588C280.766 53.9588 280.076 53.7008 279.536 53.1848C279.008 52.6688 278.744 51.9488 278.744 51.0248ZM290.3 48.3248L283.226 60.9248H280.778L287.834 48.3248H290.3ZM281.588 49.6208C280.928 49.6208 280.598 50.0888 280.598 51.0248C280.598 51.9728 280.928 52.4468 281.588 52.4468C281.912 52.4468 282.164 52.3328 282.344 52.1048C282.524 51.8648 282.614 51.5048 282.614 51.0248C282.614 50.0888 282.272 49.6208 281.588 49.6208ZM286.646 58.2068C286.646 57.2828 286.91 56.5688 287.438 56.0648C287.978 55.5488 288.668 55.2908 289.508 55.2908C290.348 55.2908 291.026 55.5488 291.542 56.0648C292.07 56.5688 292.334 57.2828 292.334 58.2068C292.334 59.1308 292.07 59.8508 291.542 60.3668C291.026 60.8828 290.348 61.1408 289.508 61.1408C288.656 61.1408 287.966 60.8828 287.438 60.3668C286.91 59.8508 286.646 59.1308 286.646 58.2068ZM289.49 56.8028C288.806 56.8028 288.464 57.2708 288.464 58.2068C288.464 59.1548 288.806 59.6288 289.49 59.6288C290.162 59.6288 290.498 59.1548 290.498 58.2068C290.498 57.2708 290.162 56.8028 289.49 56.8028Z" fill="white"/>
</g>
<g filter="url(#filter1_d_5436_5794)">
<path d="M303.342 250.902V248.922L309.228 240.498H312.162V248.706H313.746V250.902H312.162V253.458H309.642V250.902H303.342ZM309.804 243.198L306.114 248.706H309.804V243.198ZM317.546 246.51C316.346 245.886 315.746 244.92 315.746 243.612C315.746 242.964 315.908 242.376 316.232 241.848C316.568 241.308 317.066 240.882 317.726 240.57C318.398 240.246 319.214 240.084 320.174 240.084C321.134 240.084 321.944 240.246 322.604 240.57C323.276 240.882 323.774 241.308 324.098 241.848C324.434 242.376 324.602 242.964 324.602 243.612C324.602 244.272 324.44 244.854 324.116 245.358C323.792 245.85 323.36 246.234 322.82 246.51C323.48 246.798 323.996 247.218 324.368 247.77C324.74 248.322 324.926 248.976 324.926 249.732C324.926 250.548 324.716 251.262 324.296 251.874C323.888 252.474 323.324 252.936 322.604 253.26C321.884 253.584 321.074 253.746 320.174 253.746C319.274 253.746 318.464 253.584 317.744 253.26C317.036 252.936 316.472 252.474 316.052 251.874C315.644 251.262 315.44 250.548 315.44 249.732C315.44 248.976 315.626 248.322 315.998 247.77C316.37 247.206 316.886 246.786 317.546 246.51ZM322.154 243.972C322.154 243.384 321.974 242.928 321.614 242.604C321.266 242.28 320.786 242.118 320.174 242.118C319.574 242.118 319.094 242.28 318.734 242.604C318.386 242.928 318.212 243.39 318.212 243.99C318.212 244.53 318.392 244.962 318.752 245.286C319.124 245.61 319.598 245.772 320.174 245.772C320.75 245.772 321.224 245.61 321.596 245.286C321.968 244.95 322.154 244.512 322.154 243.972ZM320.174 247.608C319.49 247.608 318.932 247.782 318.5 248.13C318.08 248.478 317.87 248.976 317.87 249.624C317.87 250.224 318.074 250.716 318.482 251.1C318.902 251.472 319.466 251.658 320.174 251.658C320.882 251.658 321.44 251.466 321.848 251.082C322.256 250.698 322.46 250.212 322.46 249.624C322.46 248.988 322.25 248.496 321.83 248.148C321.41 247.788 320.858 247.608 320.174 247.608ZM326.629 243.558C326.629 242.646 326.893 241.932 327.421 241.416C327.961 240.9 328.651 240.642 329.491 240.642C330.331 240.642 331.015 240.9 331.543 241.416C332.083 241.932 332.353 242.646 332.353 243.558C332.353 244.482 332.083 245.202 331.543 245.718C331.015 246.234 330.331 246.492 329.491 246.492C328.651 246.492 327.961 246.234 327.421 245.718C326.893 245.202 326.629 244.482 326.629 243.558ZM338.185 240.858L331.111 253.458H328.663L335.719 240.858H338.185ZM329.473 242.154C328.813 242.154 328.483 242.622 328.483 243.558C328.483 244.506 328.813 244.98 329.473 244.98C329.797 244.98 330.049 244.866 330.229 244.638C330.409 244.398 330.499 244.038 330.499 243.558C330.499 242.622 330.157 242.154 329.473 242.154ZM334.531 250.74C334.531 249.816 334.795 249.102 335.323 248.598C335.863 248.082 336.553 247.824 337.393 247.824C338.233 247.824 338.911 248.082 339.427 248.598C339.955 249.102 340.219 249.816 340.219 250.74C340.219 251.664 339.955 252.384 339.427 252.9C338.911 253.416 338.233 253.674 337.393 253.674C336.541 253.674 335.851 253.416 335.323 252.9C334.795 252.384 334.531 251.664 334.531 250.74ZM337.375 249.336C336.691 249.336 336.349 249.804 336.349 250.74C336.349 251.688 336.691 252.162 337.375 252.162C338.047 252.162 338.383 251.688 338.383 250.74C338.383 249.804 338.047 249.336 337.375 249.336Z" fill="white"/>
</g>
<g filter="url(#filter2_d_5436_5794)">
<path d="M183.051 338.056C184.203 337.096 185.121 336.298 185.805 335.662C186.489 335.014 187.059 334.342 187.515 333.646C187.971 332.95 188.199 332.266 188.199 331.594C188.199 330.982 188.055 330.502 187.767 330.154C187.479 329.806 187.035 329.632 186.435 329.632C185.835 329.632 185.373 329.836 185.049 330.244C184.725 330.64 184.557 331.186 184.545 331.882H182.097C182.145 330.442 182.571 329.35 183.375 328.606C184.191 327.862 185.223 327.49 186.471 327.49C187.839 327.49 188.889 327.856 189.621 328.588C190.353 329.308 190.719 330.262 190.719 331.45C190.719 332.386 190.467 333.28 189.963 334.132C189.459 334.984 188.883 335.728 188.235 336.364C187.587 336.988 186.741 337.744 185.697 338.632H191.007V340.72H182.115V338.848L183.051 338.056ZM192.595 334.168C192.595 332.092 192.967 330.466 193.711 329.29C194.467 328.114 195.715 327.526 197.455 327.526C199.195 327.526 200.437 328.114 201.181 329.29C201.937 330.466 202.315 332.092 202.315 334.168C202.315 336.256 201.937 337.894 201.181 339.082C200.437 340.27 199.195 340.864 197.455 340.864C195.715 340.864 194.467 340.27 193.711 339.082C192.967 337.894 192.595 336.256 192.595 334.168ZM199.831 334.168C199.831 333.28 199.771 332.536 199.651 331.936C199.543 331.324 199.315 330.826 198.967 330.442C198.631 330.058 198.127 329.866 197.455 329.866C196.783 329.866 196.273 330.058 195.925 330.442C195.589 330.826 195.361 331.324 195.241 331.936C195.133 332.536 195.079 333.28 195.079 334.168C195.079 335.08 195.133 335.848 195.241 336.472C195.349 337.084 195.577 337.582 195.925 337.966C196.273 338.338 196.783 338.524 197.455 338.524C198.127 338.524 198.637 338.338 198.985 337.966C199.333 337.582 199.561 337.084 199.669 336.472C199.777 335.848 199.831 335.08 199.831 334.168ZM203.944 331C203.944 330.088 204.208 329.374 204.736 328.858C205.276 328.342 205.966 328.084 206.806 328.084C207.646 328.084 208.33 328.342 208.858 328.858C209.398 329.374 209.668 330.088 209.668 331C209.668 331.924 209.398 332.644 208.858 333.16C208.33 333.676 207.646 333.934 206.806 333.934C205.966 333.934 205.276 333.676 204.736 333.16C204.208 332.644 203.944 331.924 203.944 331ZM215.5 328.3L208.426 340.9H205.978L213.034 328.3H215.5ZM206.788 329.596C206.128 329.596 205.798 330.064 205.798 331C205.798 331.948 206.128 332.422 206.788 332.422C207.112 332.422 207.364 332.308 207.544 332.08C207.724 331.84 207.814 331.48 207.814 331C207.814 330.064 207.472 329.596 206.788 329.596ZM211.846 338.182C211.846 337.258 212.11 336.544 212.638 336.04C213.178 335.524 213.868 335.266 214.708 335.266C215.548 335.266 216.226 335.524 216.742 336.04C217.27 336.544 217.534 337.258 217.534 338.182C217.534 339.106 217.27 339.826 216.742 340.342C216.226 340.858 215.548 341.116 214.708 341.116C213.856 341.116 213.166 340.858 212.638 340.342C212.11 339.826 211.846 339.106 211.846 338.182ZM214.69 336.778C214.006 336.778 213.664 337.246 213.664 338.182C213.664 339.13 214.006 339.604 214.69 339.604C215.362 339.604 215.698 339.13 215.698 338.182C215.698 337.246 215.362 336.778 214.69 336.778Z" fill="white"/>
</g>
<g filter="url(#filter3_d_5436_5794)">
<path d="M96.4463 319.605C97.5983 318.645 98.5163 317.847 99.2003 317.211C99.8843 316.563 100.454 315.891 100.91 315.195C101.366 314.499 101.594 313.815 101.594 313.143C101.594 312.531 101.45 312.051 101.162 311.703C100.874 311.355 100.43 311.181 99.8303 311.181C99.2303 311.181 98.7683 311.385 98.4443 311.793C98.1203 312.189 97.9523 312.735 97.9403 313.431H95.4923C95.5403 311.991 95.9663 310.899 96.7703 310.155C97.5863 309.411 98.6183 309.039 99.8663 309.039C101.234 309.039 102.284 309.405 103.016 310.137C103.748 310.857 104.114 311.811 104.114 312.999C104.114 313.935 103.862 314.829 103.358 315.681C102.854 316.533 102.278 317.277 101.63 317.913C100.982 318.537 100.136 319.293 99.0923 320.181H104.402V322.269H95.5103V320.397L96.4463 319.605ZM108.186 315.501C106.986 314.877 106.386 313.911 106.386 312.603C106.386 311.955 106.548 311.367 106.872 310.839C107.208 310.299 107.706 309.873 108.366 309.561C109.038 309.237 109.854 309.075 110.814 309.075C111.774 309.075 112.584 309.237 113.244 309.561C113.916 309.873 114.414 310.299 114.738 310.839C115.074 311.367 115.242 311.955 115.242 312.603C115.242 313.263 115.08 313.845 114.756 314.349C114.432 314.841 114 315.225 113.46 315.501C114.12 315.789 114.636 316.209 115.008 316.761C115.38 317.313 115.566 317.967 115.566 318.723C115.566 319.539 115.356 320.253 114.936 320.865C114.528 321.465 113.964 321.927 113.244 322.251C112.524 322.575 111.714 322.737 110.814 322.737C109.914 322.737 109.104 322.575 108.384 322.251C107.676 321.927 107.112 321.465 106.692 320.865C106.284 320.253 106.08 319.539 106.08 318.723C106.08 317.967 106.266 317.313 106.638 316.761C107.01 316.197 107.526 315.777 108.186 315.501ZM112.794 312.963C112.794 312.375 112.614 311.919 112.254 311.595C111.906 311.271 111.426 311.109 110.814 311.109C110.214 311.109 109.734 311.271 109.374 311.595C109.026 311.919 108.852 312.381 108.852 312.981C108.852 313.521 109.032 313.953 109.392 314.277C109.764 314.601 110.238 314.763 110.814 314.763C111.39 314.763 111.864 314.601 112.236 314.277C112.608 313.941 112.794 313.503 112.794 312.963ZM110.814 316.599C110.13 316.599 109.572 316.773 109.14 317.121C108.72 317.469 108.51 317.967 108.51 318.615C108.51 319.215 108.714 319.707 109.122 320.091C109.542 320.463 110.106 320.649 110.814 320.649C111.522 320.649 112.08 320.457 112.488 320.073C112.896 319.689 113.1 319.203 113.1 318.615C113.1 317.979 112.89 317.487 112.47 317.139C112.05 316.779 111.498 316.599 110.814 316.599ZM117.269 312.549C117.269 311.637 117.533 310.923 118.061 310.407C118.601 309.891 119.291 309.633 120.131 309.633C120.971 309.633 121.655 309.891 122.183 310.407C122.723 310.923 122.993 311.637 122.993 312.549C122.993 313.473 122.723 314.193 122.183 314.709C121.655 315.225 120.971 315.483 120.131 315.483C119.291 315.483 118.601 315.225 118.061 314.709C117.533 314.193 117.269 313.473 117.269 312.549ZM128.825 309.849L121.751 322.449H119.303L126.359 309.849H128.825ZM120.113 311.145C119.453 311.145 119.123 311.613 119.123 312.549C119.123 313.497 119.453 313.971 120.113 313.971C120.437 313.971 120.689 313.857 120.869 313.629C121.049 313.389 121.139 313.029 121.139 312.549C121.139 311.613 120.797 311.145 120.113 311.145ZM125.171 319.731C125.171 318.807 125.435 318.093 125.963 317.589C126.503 317.073 127.193 316.815 128.033 316.815C128.873 316.815 129.551 317.073 130.067 317.589C130.595 318.093 130.859 318.807 130.859 319.731C130.859 320.655 130.595 321.375 130.067 321.891C129.551 322.407 128.873 322.665 128.033 322.665C127.181 322.665 126.491 322.407 125.963 321.891C125.435 321.375 125.171 320.655 125.171 319.731ZM128.015 318.327C127.331 318.327 126.989 318.795 126.989 319.731C126.989 320.679 127.331 321.153 128.015 321.153C128.687 321.153 129.023 320.679 129.023 319.731C129.023 318.795 128.687 318.327 128.015 318.327Z" fill="white"/>
</g>
<g filter="url(#filter4_d_5436_5794)">
<path d="M12.0394 209.296C12.0994 208.096 12.5194 207.172 13.2994 206.524C14.0914 205.864 15.1294 205.534 16.4134 205.534C17.2894 205.534 18.0394 205.69 18.6634 206.002C19.2874 206.302 19.7554 206.716 20.0674 207.244C20.3914 207.76 20.5534 208.348 20.5534 209.008C20.5534 209.764 20.3554 210.406 19.9594 210.934C19.5754 211.45 19.1134 211.798 18.5734 211.978V212.05C19.2694 212.266 19.8094 212.65 20.1934 213.202C20.5894 213.754 20.7874 214.462 20.7874 215.326C20.7874 216.046 20.6194 216.688 20.2834 217.252C19.9594 217.816 19.4734 218.26 18.8254 218.584C18.1894 218.896 17.4214 219.052 16.5214 219.052C15.1654 219.052 14.0614 218.71 13.2094 218.026C12.3574 217.342 11.9074 216.334 11.8594 215.002H14.3074C14.3314 215.59 14.5294 216.064 14.9014 216.424C15.2854 216.772 15.8074 216.946 16.4674 216.946C17.0794 216.946 17.5474 216.778 17.8714 216.442C18.2074 216.094 18.3754 215.65 18.3754 215.11C18.3754 214.39 18.1474 213.874 17.6914 213.562C17.2354 213.25 16.5274 213.094 15.5674 213.094H15.0454V211.024H15.5674C17.2714 211.024 18.1234 210.454 18.1234 209.314C18.1234 208.798 17.9674 208.396 17.6554 208.108C17.3554 207.82 16.9174 207.676 16.3414 207.676C15.7774 207.676 15.3394 207.832 15.0274 208.144C14.7274 208.444 14.5534 208.828 14.5054 209.296H12.0394ZM24.9748 212.014C23.7748 211.39 23.1748 210.424 23.1748 209.116C23.1748 208.468 23.3368 207.88 23.6608 207.352C23.9968 206.812 24.4948 206.386 25.1548 206.074C25.8268 205.75 26.6428 205.588 27.6028 205.588C28.5628 205.588 29.3728 205.75 30.0328 206.074C30.7048 206.386 31.2028 206.812 31.5268 207.352C31.8628 207.88 32.0308 208.468 32.0308 209.116C32.0308 209.776 31.8688 210.358 31.5448 210.862C31.2208 211.354 30.7888 211.738 30.2488 212.014C30.9088 212.302 31.4248 212.722 31.7968 213.274C32.1688 213.826 32.3548 214.48 32.3548 215.236C32.3548 216.052 32.1448 216.766 31.7248 217.378C31.3168 217.978 30.7528 218.44 30.0328 218.764C29.3128 219.088 28.5028 219.25 27.6028 219.25C26.7028 219.25 25.8928 219.088 25.1728 218.764C24.4648 218.44 23.9008 217.978 23.4808 217.378C23.0728 216.766 22.8688 216.052 22.8688 215.236C22.8688 214.48 23.0548 213.826 23.4268 213.274C23.7988 212.71 24.3148 212.29 24.9748 212.014ZM29.5828 209.476C29.5828 208.888 29.4028 208.432 29.0428 208.108C28.6948 207.784 28.2148 207.622 27.6028 207.622C27.0028 207.622 26.5228 207.784 26.1628 208.108C25.8148 208.432 25.6408 208.894 25.6408 209.494C25.6408 210.034 25.8208 210.466 26.1808 210.79C26.5528 211.114 27.0268 211.276 27.6028 211.276C28.1788 211.276 28.6528 211.114 29.0248 210.79C29.3968 210.454 29.5828 210.016 29.5828 209.476ZM27.6028 213.112C26.9188 213.112 26.3608 213.286 25.9288 213.634C25.5088 213.982 25.2988 214.48 25.2988 215.128C25.2988 215.728 25.5028 216.22 25.9108 216.604C26.3308 216.976 26.8948 217.162 27.6028 217.162C28.3108 217.162 28.8688 216.97 29.2768 216.586C29.6848 216.202 29.8888 215.716 29.8888 215.128C29.8888 214.492 29.6788 214 29.2588 213.652C28.8388 213.292 28.2868 213.112 27.6028 213.112ZM34.0572 209.062C34.0572 208.15 34.3212 207.436 34.8492 206.92C35.3892 206.404 36.0792 206.146 36.9192 206.146C37.7592 206.146 38.4432 206.404 38.9712 206.92C39.5112 207.436 39.7812 208.15 39.7812 209.062C39.7812 209.986 39.5112 210.706 38.9712 211.222C38.4432 211.738 37.7592 211.996 36.9192 211.996C36.0792 211.996 35.3892 211.738 34.8492 211.222C34.3212 210.706 34.0572 209.986 34.0572 209.062ZM45.6132 206.362L38.5392 218.962H36.0912L43.1472 206.362H45.6132ZM36.9012 207.658C36.2412 207.658 35.9112 208.126 35.9112 209.062C35.9112 210.01 36.2412 210.484 36.9012 210.484C37.2252 210.484 37.4772 210.37 37.6572 210.142C37.8372 209.902 37.9272 209.542 37.9272 209.062C37.9272 208.126 37.5852 207.658 36.9012 207.658ZM41.9592 216.244C41.9592 215.32 42.2232 214.606 42.7512 214.102C43.2912 213.586 43.9812 213.328 44.8212 213.328C45.6612 213.328 46.3392 213.586 46.8552 214.102C47.3832 214.606 47.6472 215.32 47.6472 216.244C47.6472 217.168 47.3832 217.888 46.8552 218.404C46.3392 218.92 45.6612 219.178 44.8212 219.178C43.9692 219.178 43.2792 218.92 42.7512 218.404C42.2232 217.888 41.9592 217.168 41.9592 216.244ZM44.8032 214.84C44.1192 214.84 43.7772 215.308 43.7772 216.244C43.7772 217.192 44.1192 217.666 44.8032 217.666C45.4752 217.666 45.8112 217.192 45.8112 216.244C45.8112 215.308 45.4752 214.84 44.8032 214.84Z" fill="white"/>
</g>
<g filter="url(#filter5_d_5436_5794)">
<path d="M69.86 60.7751V58.7951L75.746 50.3711H78.68V58.5791H80.264V60.7751H78.68V63.3311H76.16V60.7751H69.86ZM76.322 53.0711L72.632 58.5791H76.322V53.0711ZM81.8684 56.5991C81.8684 54.5231 82.2404 52.8971 82.9844 51.7211C83.7404 50.5451 84.9884 49.9571 86.7284 49.9571C88.4684 49.9571 89.7104 50.5451 90.4544 51.7211C91.2104 52.8971 91.5884 54.5231 91.5884 56.5991C91.5884 58.6871 91.2104 60.3251 90.4544 61.5131C89.7104 62.7011 88.4684 63.2951 86.7284 63.2951C84.9884 63.2951 83.7404 62.7011 82.9844 61.5131C82.2404 60.3251 81.8684 58.6871 81.8684 56.5991ZM89.1044 56.5991C89.1044 55.7111 89.0444 54.9671 88.9244 54.3671C88.8164 53.7551 88.5884 53.2571 88.2404 52.8731C87.9044 52.4891 87.4004 52.2971 86.7284 52.2971C86.0564 52.2971 85.5464 52.4891 85.1984 52.8731C84.8624 53.2571 84.6344 53.7551 84.5144 54.3671C84.4064 54.9671 84.3524 55.7111 84.3524 56.5991C84.3524 57.5111 84.4064 58.2791 84.5144 58.9031C84.6224 59.5151 84.8504 60.0131 85.1984 60.3971C85.5464 60.7691 86.0564 60.9551 86.7284 60.9551C87.4004 60.9551 87.9104 60.7691 88.2584 60.3971C88.6064 60.0131 88.8344 59.5151 88.9424 58.9031C89.0504 58.2791 89.1044 57.5111 89.1044 56.5991ZM93.2171 53.4311C93.2171 52.5191 93.4811 51.8051 94.0091 51.2891C94.5491 50.7731 95.2391 50.5151 96.0791 50.5151C96.9191 50.5151 97.6031 50.7731 98.1311 51.2891C98.6711 51.8051 98.9411 52.5191 98.9411 53.4311C98.9411 54.3551 98.6711 55.0751 98.1311 55.5911C97.6031 56.1071 96.9191 56.3651 96.0791 56.3651C95.2391 56.3651 94.5491 56.1071 94.0091 55.5911C93.4811 55.0751 93.2171 54.3551 93.2171 53.4311ZM104.773 50.7311L97.6991 63.3311H95.2511L102.307 50.7311H104.773ZM96.0611 52.0271C95.4011 52.0271 95.0711 52.4951 95.0711 53.4311C95.0711 54.3791 95.4011 54.8531 96.0611 54.8531C96.3851 54.8531 96.6371 54.7391 96.8171 54.5111C96.9971 54.2711 97.0871 53.9111 97.0871 53.4311C97.0871 52.4951 96.7451 52.0271 96.0611 52.0271ZM101.119 60.6131C101.119 59.6891 101.383 58.9751 101.911 58.4711C102.451 57.9551 103.141 57.6971 103.981 57.6971C104.821 57.6971 105.499 57.9551 106.015 58.4711C106.543 58.9751 106.807 59.6891 106.807 60.6131C106.807 61.5371 106.543 62.2571 106.015 62.7731C105.499 63.2891 104.821 63.5471 103.981 63.5471C103.129 63.5471 102.439 63.2891 101.911 62.7731C101.383 62.2571 101.119 61.5371 101.119 60.6131ZM103.963 59.2091C103.279 59.2091 102.937 59.6771 102.937 60.6131C102.937 61.5611 103.279 62.0351 103.963 62.0351C104.635 62.0351 104.971 61.5611 104.971 60.6131C104.971 59.6771 104.635 59.2091 103.963 59.2091Z" fill="white"/>
</g>
<defs>
<filter id="filter0_d_5436_5794" x="252.528" y="47.4971" width="43.8054" height="21.6436" filterUnits="userSpaceOnUse" color-interpolation-filters="sRGB">
<feFlood flood-opacity="0" result="BackgroundImageFix"/>
<feColorMatrix in="SourceAlpha" type="matrix" values="0 0 0 0 0 0 0 0 0 0 0 0 0 0 0 0 0 0 127 0" result="hardAlpha"/>
<feOffset dy="4"/>
<feGaussianBlur stdDeviation="2"/>
<feComposite in2="hardAlpha" operator="out"/>
<feColorMatrix type="matrix" values="0 0 0 0 0 0 0 0 0 0 0 0 0 0 0 0 0 0 0.25 0"/>
<feBlend mode="normal" in2="BackgroundImageFix" result="effect1_dropShadow_5436_5794"/>
<feBlend mode="normal" in="SourceGraphic" in2="effect1_dropShadow_5436_5794" result="shape"/>
</filter>
<filter id="filter1_d_5436_5794" x="299.342" y="240.084" width="44.877" height="21.6621" filterUnits="userSpaceOnUse" color-interpolation-filters="sRGB">
<feFlood flood-opacity="0" result="BackgroundImageFix"/>
<feColorMatrix in="SourceAlpha" type="matrix" values="0 0 0 0 0 0 0 0 0 0 0 0 0 0 0 0 0 0 127 0" result="hardAlpha"/>
<feOffset dy="4"/>
<feGaussianBlur stdDeviation="2"/>
<feComposite in2="hardAlpha" operator="out"/>
<feColorMatrix type="matrix" values="0 0 0 0 0 0 0 0 0 0 0 0 0 0 0 0 0 0 0.25 0"/>
<feBlend mode="normal" in2="BackgroundImageFix" result="effect1_dropShadow_5436_5794"/>
<feBlend mode="normal" in="SourceGraphic" in2="effect1_dropShadow_5436_5794" result="shape"/>
</filter>
<filter id="filter2_d_5436_5794" x="178.097" y="327.49" width="43.4368" height="21.626" filterUnits="userSpaceOnUse" color-interpolation-filters="sRGB">
<feFlood flood-opacity="0" result="BackgroundImageFix"/>
<feColorMatrix in="SourceAlpha" type="matrix" values="0 0 0 0 0 0 0 0 0 0 0 0 0 0 0 0 0 0 127 0" result="hardAlpha"/>
<feOffset dy="4"/>
<feGaussianBlur stdDeviation="2"/>
<feComposite in2="hardAlpha" operator="out"/>
<feColorMatrix type="matrix" values="0 0 0 0 0 0 0 0 0 0 0 0 0 0 0 0 0 0 0.25 0"/>
<feBlend mode="normal" in2="BackgroundImageFix" result="effect1_dropShadow_5436_5794"/>
<feBlend mode="normal" in="SourceGraphic" in2="effect1_dropShadow_5436_5794" result="shape"/>
</filter>
<filter id="filter3_d_5436_5794" x="91.4922" y="309.039" width="43.3665" height="21.6982" filterUnits="userSpaceOnUse" color-interpolation-filters="sRGB">
<feFlood flood-opacity="0" result="BackgroundImageFix"/>
<feColorMatrix in="SourceAlpha" type="matrix" values="0 0 0 0 0 0 0 0 0 0 0 0 0 0 0 0 0 0 127 0" result="hardAlpha"/>
<feOffset dy="4"/>
<feGaussianBlur stdDeviation="2"/>
<feComposite in2="hardAlpha" operator="out"/>
<feColorMatrix type="matrix" values="0 0 0 0 0 0 0 0 0 0 0 0 0 0 0 0 0 0 0.25 0"/>
<feBlend mode="normal" in2="BackgroundImageFix" result="effect1_dropShadow_5436_5794"/>
<feBlend mode="normal" in="SourceGraphic" in2="effect1_dropShadow_5436_5794" result="shape"/>
</filter>
<filter id="filter4_d_5436_5794" x="7.85938" y="205.534" width="43.7878" height="21.7158" filterUnits="userSpaceOnUse" color-interpolation-filters="sRGB">
<feFlood flood-opacity="0" result="BackgroundImageFix"/>
<feColorMatrix in="SourceAlpha" type="matrix" values="0 0 0 0 0 0 0 0 0 0 0 0 0 0 0 0 0 0 127 0" result="hardAlpha"/>
<feOffset dy="4"/>
<feGaussianBlur stdDeviation="2"/>
<feComposite in2="hardAlpha" operator="out"/>
<feColorMatrix type="matrix" values="0 0 0 0 0 0 0 0 0 0 0 0 0 0 0 0 0 0 0.25 0"/>
<feBlend mode="normal" in2="BackgroundImageFix" result="effect1_dropShadow_5436_5794"/>
<feBlend mode="normal" in="SourceGraphic" in2="effect1_dropShadow_5436_5794" result="shape"/>
</filter>
<filter id="filter5_d_5436_5794" x="65.8599" y="49.957" width="44.9473" height="21.5898" filterUnits="userSpaceOnUse" color-interpolation-filters="sRGB">
<feFlood flood-opacity="0" result="BackgroundImageFix"/>
<feColorMatrix in="SourceAlpha" type="matrix" values="0 0 0 0 0 0 0 0 0 0 0 0 0 0 0 0 0 0 127 0" result="hardAlpha"/>
<feOffset dy="4"/>
<feGaussianBlur stdDeviation="2"/>
<feComposite in2="hardAlpha" operator="out"/>
<feColorMatrix type="matrix" values="0 0 0 0 0 0 0 0 0 0 0 0 0 0 0 0 0 0 0.25 0"/>
<feBlend mode="normal" in2="BackgroundImageFix" result="effect1_dropShadow_5436_5794"/>
<feBlend mode="normal" in="SourceGraphic" in2="effect1_dropShadow_5436_5794" result="shape"/>
</filter>
</defs>
</svg>
